<?xml version="1.0" encoding="utf-8"?>
<!-- Generator: Adobe Illustrator 24.0.1, SVG Export Plug-In . SVG Version: 6.00 Build 0)  -->
<svg version="1.1" id="图层_1" xmlns="http://www.w3.org/2000/svg" xmlns:xlink="http://www.w3.org/1999/xlink" x="0px" y="0px"
	 viewBox="0 0 212.4 212.4" style="enable-background:new 0 0 212.4 212.4;" xml:space="preserve">
<style type="text/css">
	.st0{fill:#55A6FF;}
	.st1{fill:#FFFFFF;}
</style>
<g>
	<circle class="st0" cx="106.2" cy="106.2" r="106.2"/>
	<path class="st1" d="M76.6,188.6c-6-9.3-11.9-18.5-17.9-27.9c-1.8,1-3.4,1.9-5.2,2.9c-1.1-1.4-2.3-2.9-3.7-4.6
		c0.6-1.1,1.5-2.8,2.5-4.6c-9.3-6-18.5-11.9-27.8-17.9c2-3,4.4-4.7,8-4.5c6.3,0.4,12,2.8,17.9,5c3,1.1,6.2,2.1,9.4,2
		c2.1,0,4.8-1.3,6.2-2.9c5.8-6.6,11.2-13.6,16.8-20.4c3.7-4.5,7.5-9,11.6-13.9c-4-3.6-7.5-7.6-11.8-10.5C67.9,81.4,53,71.8,38.2,62
		c-1.7-1.1-3.3-2.4-4.9-3.7c-1.4-1.1-1.2-2.4,0.5-2.8c1.8-0.4,3.9-0.8,5.6-0.4c8.4,2.1,16.7,4.4,25,6.8c1.9,0.6,3.1,0.2,4.4-1.2
		c1.3-1.5,2.8-3,4.3-4.3c2-1.8,3.4-1.5,5.9,1.1c2.1,2.1,2.2,3.6,0.5,5.5c-0.7,0.7-1.4,1.5-2.2,2.4c5.8,1.6,11.3,3.2,16.8,4.6
		c0.8,0.2,2-0.2,2.7-0.8c1.8-1.5,3.3-3.3,5-4.9c2-1.8,3.4-1.7,5.5,0.4c2.1,2.1,2.2,3.5,0.4,5.5c-0.7,0.8-1.6,1.5-2.4,2.4
		c9.1,4.1,15.5,4.1,23.9-6.2c5.7-7,11.8-13.6,20.1-17.2c4.4-1.9,9.3-2.9,14.1-3.7c4.1-0.6,4.4,0,4.3,4.1c-0.2,8.7-3.6,16.3-9.1,22.8
		c-3.5,4.1-7.7,7.5-11.5,11.3c-1.9,1.8-3.9,3.5-5.5,5.5c-4.6,5.7-4.4,11.9-1.2,18.4c0.6-0.5,1.1-0.9,1.6-1.4
		c2.7-2.5,3.9-2.6,6.3-0.2c2.2,2.2,2.4,4-0.4,6.1c-4.6,3.5-5.6,7.3-3.3,12.6c1.5,3.4,2,7.1,3.1,10.9c0.5-0.4,0.9-0.6,1.2-0.9
		c3.4-3.2,5.9-2.9,8.1,1.2c0.5,1,0.1,2.6-0.3,3.8c-0.3,0.8-1.2,1.5-1.9,2c-4,2.7-4.2,6.1-2.8,10.5c2.3,6.9,4.1,14.1,5.9,21.2
		c0.4,1.7,0.3,3.7,0,5.4c-0.5,2.3-2,2.6-3.5,0.7c-1.8-2.3-3.5-4.8-5.1-7.3c-8.9-13.5-17.6-27.1-26.7-40.4
		c-3.2-4.6-7.3-8.6-11.2-13.1c-4.6,3.9-8.9,7.4-13.1,10.9c-6.1,5.1-12.2,10.3-18.4,15.4c-0.4,0.3-0.7,0.7-1.1,0.8
		c-4.4,1.9-5.9,6.3-4.5,11.6c0.8,2.9,2.1,5.7,3.1,8.6c1.3,4.1,2.6,8.1,3.5,12.3C81.8,182.5,80.7,186,76.6,188.6z"/>
</g>
</svg>
