<?xml version="1.0" encoding="utf-8"?>
<!-- Generator: Adobe Illustrator 24.0.1, SVG Export Plug-In . SVG Version: 6.00 Build 0)  -->
<svg version="1.1" id="图层_1" xmlns="http://www.w3.org/2000/svg" xmlns:xlink="http://www.w3.org/1999/xlink" x="0px" y="0px"
	 viewBox="0 0 212.4 212.4" style="enable-background:new 0 0 212.4 212.4;" xml:space="preserve">
<style type="text/css">
	.st0{fill:#00C94F;}
	.st1{fill:#FFFFFF;}
</style>
<g>
	<circle class="st0" cx="106.2" cy="106.2" r="106.2"/>
	<g>
		<path class="st1" d="M162.8,112.8c-0.7-0.1-0.5,0.4-0.5,0.7c-1.4,10.1-5.2,19.2-11.5,27.3c-4.4,5.7-9.8,10.4-16.1,14.1
			c-0.5,0.3-0.9,0.4-1.3-0.2c-2.3-3.1-4.6-6.1-7-9.1c-0.8-1,0.1-1.1,0.6-1.3c9.9-5.5,17-13.6,20.4-24.4c5.4-17.2,1.8-32.5-11.1-45.2
			c-16-15.8-41.8-16.4-58.8-1.6c-22.9,19.9-18.9,56.6,7.7,71.2c1,0.5,1,0.9,0.3,1.7c-2.2,2.8-4.4,5.7-6.5,8.5
			c-0.5,0.6-0.8,0.9-1.6,0.4c-14-8.6-23-20.8-26.7-36.8c-0.4-1.7-0.7-3.5-1-5.3c0,0-0.1-0.1-0.1-0.1c-0.1,0-0.1,0.1-0.2,0.2
			c0-4.5,0-9.1,0-13.6c0.1,0,0.1,0.3,0.3,0.1c0.1-0.1,0.1-0.2,0.1-0.2c0.4-3,1-6,1.8-8.8c4.3-14.1,12.6-25,25.2-32.7
			c5.3-3.2,11-5.4,17-6.7c0.6-0.1,1.4-0.1,1.4-1.2c0-2.6,1.3-4.3,3.7-5.3c0.2-0.1,0.9,0.1,0.5-0.6c4.3,0,8.7,0,13,0
			c-0.1,0.1-0.1,0.1-0.2,0.2c0.1,0.1,0.2,0.2,0.3,0.3c2.4,0.8,3.9,2.4,4.1,4.9c0.1,1.3,0.6,1.6,1.7,1.8c9.5,2.1,18,6.3,25.2,12.9
			c10.4,9.4,16.6,21,18.5,35c0,0.3-0.1,0.9,0.5,0.8C162.8,103.9,162.8,108.3,162.8,112.8z"/>
		<path class="st1" d="M69.4,173.9c0-1.4,0-2.7,0-4.1c0-2.1,0.5-2.8,2.6-3.2c6.3-1.3,12.7-2.5,19-3.8c1.7-0.3,3.4-0.6,5.1-1.1
			c3.4-1,5.6-3.9,5.6-7.5c0-10.7,0-21.4,0-32.1c0-2.8-1.6-4.8-4.4-5.7c-3.2-1-6.4-1.9-9.6-2.8c-0.9-0.2-1.2-0.5-1.2-1.5
			c0.1-3,0-6,0-9.1c0.1-4.3,3.1-7.6,7.3-7.9c8.3-0.7,16.7-0.7,25,0c4.2,0.4,7.2,3.7,7.3,7.9c0,3,0,6,0,9.1c0,0.8-0.2,1.2-1.1,1.5
			c-3.2,0.9-6.4,1.8-9.6,2.7c-3.1,0.9-4.6,2.8-4.6,6.1c0,10.4,0,20.7,0,31.1c0,4.5,2.4,7.5,6.8,8.4c7.5,1.5,15.1,3,22.6,4.5
			c2.4,0.5,2.8,1,2.8,3.4c0,1.3,0,2.6,0,4C118.5,173.9,93.9,173.9,69.4,173.9z"/>
	</g>
</g>
</svg>
