<?xml version="1.0" encoding="utf-8"?>
<!-- Generator: Adobe Illustrator 24.0.1, SVG Export Plug-In . SVG Version: 6.00 Build 0)  -->
<svg version="1.1" id="图层_1" xmlns="http://www.w3.org/2000/svg" xmlns:xlink="http://www.w3.org/1999/xlink" x="0px" y="0px"
	 viewBox="0 0 212.4 212.4" style="enable-background:new 0 0 212.4 212.4;" xml:space="preserve">
<style type="text/css">
	.st0{fill:#00C94F;}
	.st1{fill:#FFFFFF;stroke:#FFFFFF;stroke-width:3;stroke-miterlimit:10;}
</style>
<g>
	<circle class="st0" cx="106.2" cy="106.2" r="106.2"/>
	<g>
		<path class="st1" d="M171.3,110.7c-0.8-0.1-0.6,0.5-0.6,0.8c-1.6,11.6-6,22-13.2,31.3c-5,6.5-11.2,11.9-18.5,16.2
			c-0.6,0.3-1,0.5-1.5-0.2c-2.6-3.6-5.3-7-8-10.4c-0.9-1.1,0.1-1.3,0.7-1.5c11.3-6.3,19.5-15.6,23.4-28c6.2-19.7,2.1-37.3-12.7-51.8
			C122.6,48.9,93,48.2,73.5,65.2C47.3,88,51.9,130,82.4,146.8c1.1,0.6,1.1,1,0.3,1.9c-2.5,3.2-5,6.5-7.5,9.7c-0.6,0.7-0.9,1-1.8,0.5
			c-16-9.9-26.4-23.8-30.6-42.2c-0.5-1.9-0.8-4-1.1-6.1l-0.1-0.1c-0.1,0-0.1,0.1-0.2,0.2c0-5.2,0-10.4,0-15.6c0.1,0,0.1,0.3,0.3,0.1
			c0.1-0.1,0.1-0.2,0.1-0.2c0.5-3.4,1.1-6.9,2.1-10.1c4.9-16.2,14.4-28.7,28.9-37.5c6.1-3.7,12.6-6.2,19.5-7.7
			c0.7-0.1,1.6-0.1,1.6-1.4c0-3,1.5-4.9,4.2-6.1c0.2-0.1,1,0.1,0.6-0.7c4.9,0,10,0,14.9,0c-0.1,0.1-0.1,0.1-0.2,0.2
			c0.1,0.1,0.2,0.2,0.3,0.3c2.8,0.9,4.5,2.8,4.7,5.6c0.1,1.5,0.7,1.8,1.9,2.1c10.9,2.4,20.6,7.2,28.9,14.8
			c11.9,10.8,19,24.1,21.2,40.1c0,0.3-0.1,1,0.6,0.9C171.3,100.5,171.3,105.5,171.3,110.7z"/>
		<path class="st1" d="M64.2,180.7c0-1.6,0-3.1,0-4.7c0-2.4,0.6-3.2,3-3.7c7.2-1.5,14.6-2.9,21.8-4.4c1.9-0.3,3.9-0.7,5.8-1.3
			c3.9-1.1,6.4-4.5,6.4-8.6c0-12.3,0-24.5,0-36.8c0-3.2-1.8-5.5-5-6.5c-3.7-1.1-7.3-2.2-11-3.2c-1-0.2-1.4-0.6-1.4-1.7
			c0.1-3.4,0-6.9,0-10.4c0.1-4.9,3.6-8.7,8.4-9.1c9.5-0.8,19.1-0.8,28.7,0c4.8,0.5,8.3,4.2,8.4,9.1c0,3.4,0,6.9,0,10.4
			c0,0.9-0.2,1.4-1.3,1.7c-3.7,1-7.3,2.1-11,3.1c-3.6,1-5.3,3.2-5.3,7c0,11.9,0,23.7,0,35.6c0,5.2,2.8,8.6,7.8,9.6
			c8.6,1.7,17.3,3.4,25.9,5.2c2.8,0.6,3.2,1.1,3.2,3.9c0,1.5,0,3,0,4.6C120.5,180.7,92.3,180.7,64.2,180.7z"/>
	</g>
</g>
</svg>
